<svg width="59" height="15" viewBox="0 0 59 15" fill="none" xmlns="http://www.w3.org/2000/svg">
<path d="M4.824 12V10.74L4.704 10.464V8.208C4.704 7.808 4.58 7.496 4.332 7.272C4.092 7.048 3.72 6.936 3.216 6.936C2.872 6.936 2.532 6.992 2.196 7.104C1.868 7.208 1.588 7.352 1.356 7.536L0.684 6.228C1.036 5.98 1.46 5.788 1.956 5.652C2.452 5.516 2.956 5.448 3.468 5.448C4.452 5.448 5.216 5.68 5.76 6.144C6.304 6.608 6.576 7.332 6.576 8.316V12H4.824ZM2.856 12.096C2.352 12.096 1.92 12.012 1.56 11.844C1.2 11.668 0.924 11.432 0.732 11.136C0.54 10.84 0.444 10.508 0.444 10.14C0.444 9.756 0.536 9.42 0.72 9.132C0.912 8.844 1.212 8.62 1.62 8.46C2.028 8.292 2.56 8.208 3.216 8.208H4.932V9.3H3.42C2.98 9.3 2.676 9.372 2.508 9.516C2.348 9.66 2.268 9.84 2.268 10.056C2.268 10.296 2.36 10.488 2.544 10.632C2.736 10.768 2.996 10.836 3.324 10.836C3.636 10.836 3.916 10.764 4.164 10.62C4.412 10.468 4.592 10.248 4.704 9.96L4.992 10.824C4.856 11.24 4.608 11.556 4.248 11.772C3.888 11.988 3.424 12.096 2.856 12.096ZM7.79025 14.424C7.50225 14.424 7.22625 14.392 6.96225 14.328C6.69825 14.272 6.47425 14.184 6.29025 14.064L6.79425 12.708C7.01025 12.86 7.27425 12.936 7.58625 12.936C7.81825 12.936 8.00225 12.856 8.13825 12.696C8.28225 12.544 8.35425 12.312 8.35425 12V5.544H10.2263V11.988C10.2263 12.732 10.0143 13.324 9.59025 13.764C9.16625 14.204 8.56625 14.424 7.79025 14.424ZM9.29025 4.644C8.94625 4.644 8.66625 4.544 8.45025 4.344C8.23425 4.144 8.12625 3.896 8.12625 3.6C8.12625 3.304 8.23425 3.056 8.45025 2.856C8.66625 2.656 8.94625 2.556 9.29025 2.556C9.63425 2.556 9.91425 2.652 10.1303 2.844C10.3463 3.028 10.4543 3.268 10.4543 3.564C10.4543 3.876 10.3463 4.136 10.1303 4.344C9.92225 4.544 9.64225 4.644 9.29025 4.644ZM14.6739 12.096C14.1379 12.096 13.6579 11.992 13.2339 11.784C12.8179 11.576 12.4939 11.26 12.2619 10.836C12.0299 10.404 11.9139 9.856 11.9139 9.192V5.544H13.7859V8.916C13.7859 9.452 13.8979 9.848 14.1219 10.104C14.3539 10.352 14.6779 10.476 15.0939 10.476C15.3819 10.476 15.6379 10.416 15.8619 10.296C16.0859 10.168 16.2619 9.976 16.3899 9.72C16.5179 9.456 16.5819 9.128 16.5819 8.736V5.544H18.4539V12H16.6779V10.224L17.0019 10.74C16.7859 11.188 16.4659 11.528 16.0419 11.76C15.6259 11.984 15.1699 12.096 14.6739 12.096ZM22.9602 12.096C22.3522 12.096 21.8042 11.96 21.3162 11.688C20.8282 11.408 20.4402 11.02 20.1522 10.524C19.8722 10.028 19.7322 9.444 19.7322 8.772C19.7322 8.092 19.8722 7.504 20.1522 7.008C20.4402 6.512 20.8282 6.128 21.3162 5.856C21.8042 5.584 22.3522 5.448 22.9602 5.448C23.5042 5.448 23.9802 5.568 24.3882 5.808C24.7962 6.048 25.1122 6.412 25.3362 6.9C25.5602 7.388 25.6722 8.012 25.6722 8.772C25.6722 9.524 25.5642 10.148 25.3482 10.644C25.1322 11.132 24.8202 11.496 24.4122 11.736C24.0122 11.976 23.5282 12.096 22.9602 12.096ZM23.2842 10.56C23.5882 10.56 23.8642 10.488 24.1122 10.344C24.3602 10.2 24.5562 9.996 24.7002 9.732C24.8522 9.46 24.9282 9.14 24.9282 8.772C24.9282 8.396 24.8522 8.076 24.7002 7.812C24.5562 7.548 24.3602 7.344 24.1122 7.2C23.8642 7.056 23.5882 6.984 23.2842 6.984C22.9722 6.984 22.6922 7.056 22.4442 7.2C22.1962 7.344 21.9962 7.548 21.8442 7.812C21.7002 8.076 21.6282 8.396 21.6282 8.772C21.6282 9.14 21.7002 9.46 21.8442 9.732C21.9962 9.996 22.1962 10.2 22.4442 10.344C22.6922 10.488 22.9722 10.56 23.2842 10.56ZM24.9762 12V10.68L25.0122 8.76L24.8922 6.852V3.096H26.7642V12H24.9762ZM32.4568 12V10.74L32.3368 10.464V8.208C32.3368 7.808 32.2128 7.496 31.9648 7.272C31.7248 7.048 31.3528 6.936 30.8488 6.936C30.5048 6.936 30.1648 6.992 29.8288 7.104C29.5008 7.208 29.2208 7.352 28.9888 7.536L28.3168 6.228C28.6688 5.98 29.0928 5.788 29.5888 5.652C30.0848 5.516 30.5888 5.448 31.1008 5.448C32.0848 5.448 32.8488 5.68 33.3928 6.144C33.9368 6.608 34.2088 7.332 34.2088 8.316V12H32.4568ZM30.4888 12.096C29.9848 12.096 29.5528 12.012 29.1928 11.844C28.8328 11.668 28.5568 11.432 28.3648 11.136C28.1728 10.84 28.0768 10.508 28.0768 10.14C28.0768 9.756 28.1688 9.42 28.3528 9.132C28.5448 8.844 28.8448 8.62 29.2528 8.46C29.6608 8.292 30.1928 8.208 30.8488 8.208H32.5648V9.3H31.0528C30.6128 9.3 30.3088 9.372 30.1408 9.516C29.9808 9.66 29.9008 9.84 29.9008 10.056C29.9008 10.296 29.9928 10.488 30.1768 10.632C30.3688 10.768 30.6288 10.836 30.9568 10.836C31.2688 10.836 31.5488 10.764 31.7968 10.62C32.0448 10.468 32.2248 10.248 32.3368 9.96L32.6248 10.824C32.4888 11.24 32.2408 11.556 31.8808 11.772C31.5208 11.988 31.0568 12.096 30.4888 12.096Z" fill="#4E4E4E"/>
<path d="M36.572 12.096C36.252 12.096 35.976 11.988 35.744 11.772C35.52 11.548 35.408 11.264 35.408 10.92C35.408 10.576 35.52 10.3 35.744 10.092C35.976 9.876 36.252 9.768 36.572 9.768C36.9 9.768 37.176 9.876 37.4 10.092C37.624 10.3 37.736 10.576 37.736 10.92C37.736 11.264 37.624 11.548 37.4 11.772C37.176 11.988 36.9 12.096 36.572 12.096ZM47.2726 5.448C47.7846 5.448 48.2366 5.552 48.6286 5.76C49.0286 5.96 49.3406 6.272 49.5646 6.696C49.7966 7.112 49.9126 7.648 49.9126 8.304V12H48.0406V8.592C48.0406 8.072 47.9326 7.688 47.7166 7.44C47.5006 7.192 47.1966 7.068 46.8046 7.068C46.5326 7.068 46.2886 7.132 46.0726 7.26C45.8566 7.38 45.6886 7.564 45.5686 7.812C45.4486 8.06 45.3886 8.376 45.3886 8.76V12H43.5166V8.592C43.5166 8.072 43.4086 7.688 43.1926 7.44C42.9846 7.192 42.6846 7.068 42.2926 7.068C42.0206 7.068 41.7766 7.132 41.5606 7.26C41.3446 7.38 41.1766 7.564 41.0566 7.812C40.9366 8.06 40.8766 8.376 40.8766 8.76V12H39.0046V5.544H40.7926V7.308L40.4566 6.792C40.6806 6.352 40.9966 6.02 41.4046 5.796C41.8206 5.564 42.2926 5.448 42.8206 5.448C43.4126 5.448 43.9286 5.6 44.3686 5.904C44.8166 6.2 45.1126 6.656 45.2566 7.272L44.5966 7.092C44.8126 6.588 45.1566 6.188 45.6286 5.892C46.1086 5.596 46.6566 5.448 47.2726 5.448ZM54.8414 12.096C54.1054 12.096 53.4574 11.952 52.8974 11.664C52.3454 11.376 51.9174 10.984 51.6134 10.488C51.3094 9.984 51.1574 9.412 51.1574 8.772C51.1574 8.124 51.3054 7.552 51.6014 7.056C51.9054 6.552 52.3174 6.16 52.8374 5.88C53.3574 5.592 53.9454 5.448 54.6014 5.448C55.2334 5.448 55.8014 5.584 56.3054 5.856C56.8174 6.12 57.2214 6.504 57.5174 7.008C57.8134 7.504 57.9614 8.1 57.9614 8.796C57.9614 8.868 57.9574 8.952 57.9494 9.048C57.9414 9.136 57.9334 9.22 57.9254 9.3H52.6814V8.208H56.9414L56.2214 8.532C56.2214 8.196 56.1534 7.904 56.0174 7.656C55.8814 7.408 55.6934 7.216 55.4534 7.08C55.2134 6.936 54.9334 6.864 54.6134 6.864C54.2934 6.864 54.0094 6.936 53.7614 7.08C53.5214 7.216 53.3334 7.412 53.1974 7.668C53.0614 7.916 52.9934 8.212 52.9934 8.556V8.844C52.9934 9.196 53.0694 9.508 53.2214 9.78C53.3814 10.044 53.6014 10.248 53.8814 10.392C54.1694 10.528 54.5054 10.596 54.8894 10.596C55.2334 10.596 55.5334 10.544 55.7894 10.44C56.0534 10.336 56.2934 10.18 56.5094 9.972L57.5054 11.052C57.2094 11.388 56.8374 11.648 56.3894 11.832C55.9414 12.008 55.4254 12.096 54.8414 12.096Z" fill="#B64A37"/>
</svg>
