<svg id="visual" viewBox="0 0 960 540" width="960" height="540" xmlns="http://www.w3.org/2000/svg" xmlns:xlink="http://www.w3.org/1999/xlink" version="1.1"><g><g transform="translate(771 242)"><path d="M82.8 -47.9C104 -11.1 115.6 31.2 100.2 64.2C84.8 97.3 42.4 121.1 1 120.5C-40.3 119.9 -80.7 94.9 -100.3 59.4C-119.9 23.9 -118.7 -22 -98.5 -58.2C-78.4 -94.4 -39.2 -120.9 -4.2 -118.5C30.8 -116.1 61.6 -84.7 82.8 -47.9Z" fill="#ffab67"></path></g><g transform="translate(381 138)"><path d="M99.3 -50.5C120.9 -19.8 125.4 27.6 106 62C86.6 96.4 43.3 117.7 5.2 114.7C-32.9 111.7 -65.7 84.3 -85.7 49.6C-105.7 14.9 -112.8 -27.2 -96.3 -54.8C-79.9 -82.5 -40 -95.7 -0.6 -95.4C38.8 -95.1 77.6 -81.2 99.3 -50.5Z" fill="#ffab67"></path></g><g transform="translate(85 372)"><path d="M64.4 -37.5C81.4 -7.9 91.5 25.4 79.6 49.8C67.7 74.1 33.9 89.6 3.6 87.5C-26.6 85.4 -53.2 65.8 -64.3 41.9C-75.3 18 -70.8 -10.2 -57.5 -37.7C-44.2 -65.3 -22.1 -92.2 0.8 -92.7C23.8 -93.2 47.5 -67.2 64.4 -37.5Z" fill="#ffab67"></path></g><g transform="translate(455 471)"><path d="M45.6 -29.1C53.6 -12.6 50.6 7.5 41.2 22.5C31.8 37.5 15.9 47.6 -3.7 49.7C-23.2 51.8 -46.4 46 -56 30.9C-65.6 15.7 -61.6 -8.7 -49.9 -27.3C-38.3 -46 -19.2 -58.7 -0.2 -58.6C18.8 -58.5 37.7 -45.6 45.6 -29.1Z" fill="#ffab67"></path></g></g></svg>