<svg id="visual" viewBox="0 0 900 600" width="900" height="600" xmlns="http://www.w3.org/2000/svg" xmlns:xlink="http://www.w3.org/1999/xlink" version="1.1"><rect x="0" y="0" width="900" height="600" fill="#FFFFFF"></rect><defs><linearGradient id="grad1_0" x1="33.3%" y1="0%" x2="100%" y2="100%"><stop offset="20%" stop-color="#fc9700" stop-opacity="1"></stop><stop offset="80%" stop-color="#fc9700" stop-opacity="1"></stop></linearGradient></defs><defs><linearGradient id="grad1_1" x1="33.3%" y1="0%" x2="100%" y2="100%"><stop offset="20%" stop-color="#fc9700" stop-opacity="1"></stop><stop offset="80%" stop-color="#ffca8f" stop-opacity="1"></stop></linearGradient></defs><defs><linearGradient id="grad1_2" x1="33.3%" y1="0%" x2="100%" y2="100%"><stop offset="20%" stop-color="#ffffff" stop-opacity="1"></stop><stop offset="80%" stop-color="#ffca8f" stop-opacity="1"></stop></linearGradient></defs><defs><linearGradient id="grad2_0" x1="0%" y1="0%" x2="66.7%" y2="100%"><stop offset="20%" stop-color="#fc9700" stop-opacity="1"></stop><stop offset="80%" stop-color="#fc9700" stop-opacity="1"></stop></linearGradient></defs><defs><linearGradient id="grad2_1" x1="0%" y1="0%" x2="66.7%" y2="100%"><stop offset="20%" stop-color="#ffca8f" stop-opacity="1"></stop><stop offset="80%" stop-color="#fc9700" stop-opacity="1"></stop></linearGradient></defs><defs><linearGradient id="grad2_2" x1="0%" y1="0%" x2="66.7%" y2="100%"><stop offset="20%" stop-color="#ffca8f" stop-opacity="1"></stop><stop offset="80%" stop-color="#ffffff" stop-opacity="1"></stop></linearGradient></defs><g transform="translate(900, 0)"><path d="M0 351.5C-51 324.7 -101.9 297.9 -157 271.9C-212.1 246 -271.3 220.9 -304.4 175.8C-337.6 130.6 -344.5 65.3 -351.5 0L0 0Z" fill="#ffe4c6"></path><path d="M0 234.4C-34 216.5 -67.9 198.6 -104.7 181.3C-141.4 164 -180.9 147.3 -203 117.2C-225 87.1 -229.7 43.5 -234.4 0L0 0Z" fill="#ffb156"></path><path d="M0 117.2C-17 108.2 -34 99.3 -52.3 90.6C-70.7 82 -90.4 73.6 -101.5 58.6C-112.5 43.5 -114.8 21.8 -117.2 0L0 0Z" fill="#fc9700"></path></g><g transform="translate(0, 600)"><path d="M0 -351.5C66.6 -345.3 133.1 -339 175.8 -304.4C218.4 -269.9 237.1 -207 262.4 -151.5C287.7 -96 319.6 -48 351.5 0L0 0Z" fill="#ffe4c6"></path><path d="M0 -234.4C44.4 -230.2 88.8 -226 117.2 -203C145.6 -179.9 158.1 -138 174.9 -101C191.8 -64 213.1 -32 234.4 0L0 0Z" fill="#ffb156"></path><path d="M0 -117.2C22.2 -115.1 44.4 -113 58.6 -101.5C72.8 -90 79 -69 87.5 -50.5C95.9 -32 106.5 -16 117.2 0L0 0Z" fill="#fc9700"></path></g></svg>