<svg width="23" height="15" viewBox="0 0 23 15" fill="none" xmlns="http://www.w3.org/2000/svg">
<path d="M8.572 12.096C8.252 12.096 7.976 11.988 7.744 11.772C7.52 11.548 7.408 11.264 7.408 10.92C7.408 10.576 7.52 10.3 7.744 10.092C7.976 9.876 8.252 9.768 8.572 9.768C8.9 9.768 9.176 9.876 9.4 10.092C9.624 10.3 9.736 10.576 9.736 10.92C9.736 11.264 9.624 11.548 9.4 11.772C9.176 11.988 8.9 12.096 8.572 12.096ZM19.2726 5.448C19.7846 5.448 20.2366 5.552 20.6286 5.76C21.0286 5.96 21.3406 6.272 21.5646 6.696C21.7966 7.112 21.9126 7.648 21.9126 8.304V12H20.0406V8.592C20.0406 8.072 19.9326 7.688 19.7166 7.44C19.5006 7.192 19.1966 7.068 18.8046 7.068C18.5326 7.068 18.2886 7.132 18.0726 7.26C17.8566 7.38 17.6886 7.564 17.5686 7.812C17.4486 8.06 17.3886 8.376 17.3886 8.76V12H15.5166V8.592C15.5166 8.072 15.4086 7.688 15.1926 7.44C14.9846 7.192 14.6846 7.068 14.2926 7.068C14.0206 7.068 13.7766 7.132 13.5606 7.26C13.3446 7.38 13.1766 7.564 13.0566 7.812C12.9366 8.06 12.8766 8.376 12.8766 8.76V12H11.0046V5.544H12.7926V7.308L12.4566 6.792C12.6806 6.352 12.9966 6.02 13.4046 5.796C13.8206 5.564 14.2926 5.448 14.8206 5.448C15.4126 5.448 15.9286 5.6 16.3686 5.904C16.8166 6.2 17.1126 6.656 17.2566 7.272L16.5966 7.092C16.8126 6.588 17.1566 6.188 17.6286 5.892C18.1086 5.596 18.6566 5.448 19.2726 5.448Z" fill="#B64A37"/>
<path d="M4.824 12V10.74L4.704 10.464V8.208C4.704 7.808 4.58 7.496 4.332 7.272C4.092 7.048 3.72 6.936 3.216 6.936C2.872 6.936 2.532 6.992 2.196 7.104C1.868 7.208 1.588 7.352 1.356 7.536L0.684 6.228C1.036 5.98 1.46 5.788 1.956 5.652C2.452 5.516 2.956 5.448 3.468 5.448C4.452 5.448 5.216 5.68 5.76 6.144C6.304 6.608 6.576 7.332 6.576 8.316V12H4.824ZM2.856 12.096C2.352 12.096 1.92 12.012 1.56 11.844C1.2 11.668 0.924 11.432 0.732 11.136C0.54 10.84 0.444 10.508 0.444 10.14C0.444 9.756 0.536 9.42 0.72 9.132C0.912 8.844 1.212 8.62 1.62 8.46C2.028 8.292 2.56 8.208 3.216 8.208H4.932V9.3H3.42C2.98 9.3 2.676 9.372 2.508 9.516C2.348 9.66 2.268 9.84 2.268 10.056C2.268 10.296 2.36 10.488 2.544 10.632C2.736 10.768 2.996 10.836 3.324 10.836C3.636 10.836 3.916 10.764 4.164 10.62C4.412 10.468 4.592 10.248 4.704 9.96L4.992 10.824C4.856 11.24 4.608 11.556 4.248 11.772C3.888 11.988 3.424 12.096 2.856 12.096Z" fill="#4E4E4E"/>
</svg>
