<svg id="visual" viewBox="0 0 900 450" width="900" height="450" xmlns="http://www.w3.org/2000/svg" xmlns:xlink="http://www.w3.org/1999/xlink" version="1.1"><path d="M0 323L150 306L300 301L450 316L600 287L750 311L900 331L900 451L750 451L600 451L450 451L300 451L150 451L0 451Z" fill="#f5730a"></path><path d="M0 351L150 337L300 342L450 318L600 329L750 328L900 324L900 451L750 451L600 451L450 451L300 451L150 451L0 451Z" fill="#da5b09"></path><path d="M0 344L150 351L300 358L450 352L600 344L750 346L900 350L900 451L750 451L600 451L450 451L300 451L150 451L0 451Z" fill="#be4407"></path><path d="M0 384L150 374L300 400L450 373L600 388L750 388L900 395L900 451L750 451L600 451L450 451L300 451L150 451L0 451Z" fill="#a32d04"></path><path d="M0 422L150 403L300 415L450 411L600 417L750 415L900 417L900 451L750 451L600 451L450 451L300 451L150 451L0 451Z" fill="#871400"></path></svg>