<svg id="visual" viewBox="0 0 900 675" width="900" height="675" xmlns="http://www.w3.org/2000/svg" xmlns:xlink="http://www.w3.org/1999/xlink" version="1.1"><path d="M0 183L13.7 180.8C27.3 178.7 54.7 174.3 82 174.3C109.3 174.3 136.7 178.7 163.8 169.7C191 160.7 218 138.3 245.2 138.3C272.3 138.3 299.7 160.7 327 174.2C354.3 187.7 381.7 192.3 409 184.5C436.3 176.7 463.7 156.3 491 139.5C518.3 122.7 545.7 109.3 573 112.7C600.3 116 627.7 136 654.8 157.3C682 178.7 709 201.3 736.2 209.3C763.3 217.3 790.7 210.7 818 193.8C845.3 177 872.7 150 886.3 136.5L900 123L900 0L886.3 0C872.7 0 845.3 0 818 0C790.7 0 763.3 0 736.2 0C709 0 682 0 654.8 0C627.7 0 600.3 0 573 0C545.7 0 518.3 0 491 0C463.7 0 436.3 0 409 0C381.7 0 354.3 0 327 0C299.7 0 272.3 0 245.2 0C218 0 191 0 163.8 0C136.7 0 109.3 0 82 0C54.7 0 27.3 0 13.7 0L0 0Z" fill="#d17c6d"></path><path d="M0 264L13.7 264C27.3 264 54.7 264 82 267.5C109.3 271 136.7 278 163.8 271.3C191 264.7 218 244.3 245.2 242C272.3 239.7 299.7 255.3 327 258.7C354.3 262 381.7 253 409 245.2C436.3 237.3 463.7 230.7 491 221.7C518.3 212.7 545.7 201.3 573 198C600.3 194.7 627.7 199.3 654.8 218.5C682 237.7 709 271.3 736.2 285.8C763.3 300.3 790.7 295.7 818 274.3C845.3 253 872.7 215 886.3 196L900 177L900 121L886.3 134.5C872.7 148 845.3 175 818 191.8C790.7 208.7 763.3 215.3 736.2 207.3C709 199.3 682 176.7 654.8 155.3C627.7 134 600.3 114 573 110.7C545.7 107.3 518.3 120.7 491 137.5C463.7 154.3 436.3 174.7 409 182.5C381.7 190.3 354.3 185.7 327 172.2C299.7 158.7 272.3 136.3 245.2 136.3C218 136.3 191 158.7 163.8 167.7C136.7 176.7 109.3 172.3 82 172.3C54.7 172.3 27.3 176.7 13.7 178.8L0 181Z" fill="#c46352"></path><path d="M0 501L13.7 492C27.3 483 54.7 465 82 456C109.3 447 136.7 447 163.8 450.3C191 453.7 218 460.3 245.2 460.3C272.3 460.3 299.7 453.7 327 443.5C354.3 433.3 381.7 419.7 409 421.8C436.3 424 463.7 442 491 444.3C518.3 446.7 545.7 433.3 573 423.2C600.3 413 627.7 406 654.8 419.5C682 433 709 467 736.2 490.7C763.3 514.3 790.7 527.7 818 523C845.3 518.3 872.7 495.7 886.3 484.3L900 473L900 175L886.3 194C872.7 213 845.3 251 818 272.3C790.7 293.7 763.3 298.3 736.2 283.8C709 269.3 682 235.7 654.8 216.5C627.7 197.3 600.3 192.7 573 196C545.7 199.3 518.3 210.7 491 219.7C463.7 228.7 436.3 235.3 409 243.2C381.7 251 354.3 260 327 256.7C299.7 253.3 272.3 237.7 245.2 240C218 242.3 191 262.7 163.8 269.3C136.7 276 109.3 269 82 265.5C54.7 262 27.3 262 13.7 262L0 262Z" fill="#b64a37"></path><path d="M0 568L13.7 566.8C27.3 565.7 54.7 563.3 82 558.8C109.3 554.3 136.7 547.7 163.8 551.2C191 554.7 218 568.3 245.2 562.7C272.3 557 299.7 532 327 525.2C354.3 518.3 381.7 529.7 409 541C436.3 552.3 463.7 563.7 491 562.5C518.3 561.3 545.7 547.7 573 538.7C600.3 529.7 627.7 525.3 654.8 535.5C682 545.7 709 570.3 736.2 582.7C763.3 595 790.7 595 818 590.5C845.3 586 872.7 577 886.3 572.5L900 568L900 471L886.3 482.3C872.7 493.7 845.3 516.3 818 521C790.7 525.7 763.3 512.3 736.2 488.7C709 465 682 431 654.8 417.5C627.7 404 600.3 411 573 421.2C545.7 431.3 518.3 444.7 491 442.3C463.7 440 436.3 422 409 419.8C381.7 417.7 354.3 431.3 327 441.5C299.7 451.7 272.3 458.3 245.2 458.3C218 458.3 191 451.7 163.8 448.3C136.7 445 109.3 445 82 454C54.7 463 27.3 481 13.7 490L0 499Z" fill="#9e4031"></path><path d="M0 676L13.7 676C27.3 676 54.7 676 82 676C109.3 676 136.7 676 163.8 676C191 676 218 676 245.2 676C272.3 676 299.7 676 327 676C354.3 676 381.7 676 409 676C436.3 676 463.7 676 491 676C518.3 676 545.7 676 573 676C600.3 676 627.7 676 654.8 676C682 676 709 676 736.2 676C763.3 676 790.7 676 818 676C845.3 676 872.7 676 886.3 676L900 676L900 566L886.3 570.5C872.7 575 845.3 584 818 588.5C790.7 593 763.3 593 736.2 580.7C709 568.3 682 543.7 654.8 533.5C627.7 523.3 600.3 527.7 573 536.7C545.7 545.7 518.3 559.3 491 560.5C463.7 561.7 436.3 550.3 409 539C381.7 527.7 354.3 516.3 327 523.2C299.7 530 272.3 555 245.2 560.7C218 566.3 191 552.7 163.8 549.2C136.7 545.7 109.3 552.3 82 556.8C54.7 561.3 27.3 563.7 13.7 564.8L0 566Z" fill="#86362a"></path></svg>