<svg width="17" height="15" viewBox="0 0 17 15" fill="none" xmlns="http://www.w3.org/2000/svg">
<path d="M13.132 5.448C13.644 5.448 14.096 5.552 14.488 5.76C14.888 5.96 15.2 6.272 15.424 6.696C15.656 7.112 15.772 7.648 15.772 8.304V12H13.9V8.592C13.9 8.072 13.792 7.688 13.576 7.44C13.36 7.192 13.056 7.068 12.664 7.068C12.392 7.068 12.148 7.132 11.932 7.26C11.716 7.38 11.548 7.564 11.428 7.812C11.308 8.06 11.248 8.376 11.248 8.76V12H9.376V8.592C9.376 8.072 9.268 7.688 9.052 7.44C8.844 7.192 8.544 7.068 8.152 7.068C7.88 7.068 7.636 7.132 7.42 7.26C7.204 7.38 7.036 7.564 6.916 7.812C6.796 8.06 6.736 8.376 6.736 8.76V12H4.864V5.544H6.652V7.308L6.316 6.792C6.54 6.352 6.856 6.02 7.264 5.796C7.68 5.564 8.152 5.448 8.68 5.448C9.272 5.448 9.788 5.6 10.228 5.904C10.676 6.2 10.972 6.656 11.116 7.272L10.456 7.092C10.672 6.588 11.016 6.188 11.488 5.892C11.968 5.596 12.516 5.448 13.132 5.448Z" fill="#B64A37"/>
<path d="M4.824 12V10.74L4.704 10.464V8.208C4.704 7.808 4.58 7.496 4.332 7.272C4.092 7.048 3.72 6.936 3.216 6.936C2.872 6.936 2.532 6.992 2.196 7.104C1.868 7.208 1.588 7.352 1.356 7.536L0.684 6.228C1.036 5.98 1.46 5.788 1.956 5.652C2.452 5.516 2.956 5.448 3.468 5.448C4.452 5.448 5.216 5.68 5.76 6.144C6.304 6.608 6.576 7.332 6.576 8.316V12H4.824ZM2.856 12.096C2.352 12.096 1.92 12.012 1.56 11.844C1.2 11.668 0.924 11.432 0.732 11.136C0.54 10.84 0.444 10.508 0.444 10.14C0.444 9.756 0.536 9.42 0.72 9.132C0.912 8.844 1.212 8.62 1.62 8.46C2.028 8.292 2.56 8.208 3.216 8.208H4.932V9.3H3.42C2.98 9.3 2.676 9.372 2.508 9.516C2.348 9.66 2.268 9.84 2.268 10.056C2.268 10.296 2.36 10.488 2.544 10.632C2.736 10.768 2.996 10.836 3.324 10.836C3.636 10.836 3.916 10.764 4.164 10.62C4.412 10.468 4.592 10.248 4.704 9.96L4.992 10.824C4.856 11.24 4.608 11.556 4.248 11.772C3.888 11.988 3.424 12.096 2.856 12.096Z" fill="#4E4E4E"/>
</svg>
